<svg width="153" height="49" viewBox="0 0 153 49" fill="none" xmlns="http://www.w3.org/2000/svg">
<path d="M3.45737 28.936H0V0H3.45737V13.3106H16.9953V0H20.4526V28.936H16.9953V13.7239H3.45737V28.936Z" fill="#1E1E1E"/>
<path d="M26.2921 21.7588C23.7651 20.7943 21.3768 20.312 19.1275 20.312C16.9059 20.312 15.1702 20.7805 13.9206 21.7175C12.6709 22.6545 12.0461 23.9497 12.0461 25.6032C12.0461 27.6149 13.1014 29.172 15.2119 30.2743C16.1561 30.7428 17.1836 31.1837 18.2944 31.5971C19.4329 31.9829 20.5715 32.4238 21.7101 32.9199C22.8487 33.4159 23.89 33.9808 24.8342 34.6147C25.7784 35.2485 26.5421 36.1304 27.1252 37.2603C27.7084 38.3626 28 39.7818 28 41.518C28 43.2266 27.514 44.6872 26.5421 45.8997C25.5701 47.1123 24.3899 47.939 23.0014 48.3799C21.6407 48.7933 20.0439 49 18.2111 49C14.7954 49 11.8795 48.1595 9.46351 46.4784L9.67178 46.1477C10.5882 46.8642 11.7684 47.4567 13.2125 47.9252C14.6843 48.3662 16.1839 48.5866 17.7112 48.5866C19.9606 48.5866 21.8767 48.0768 23.4596 47.0572C25.0703 46.0099 25.8756 44.4805 25.8756 42.4687C25.8756 40.2641 24.8203 38.5417 22.7098 37.3016C21.7656 36.7504 20.7243 36.2406 19.5857 35.7721C18.4749 35.3036 17.3502 34.8214 16.2116 34.3253C15.0731 33.8017 14.0317 33.223 13.0875 32.5892C10.977 31.2113 9.92171 29.2546 9.92171 26.7193C9.92171 24.7075 10.6021 23.0816 11.9628 21.8415C13.3235 20.5738 15.3646 19.94 18.0861 19.94C20.8353 19.94 23.6262 20.4085 26.4588 21.3455L26.2921 21.7588Z" fill="#1E1E1E"/>
<path d="M48.2841 19L43.5114 1.54545H45.6591L49.3068 15.7614H49.4773L53.1932 1.54545H55.5795L59.2955 15.7614H59.4659L63.1136 1.54545H65.2614L60.4886 19H58.3068L54.4545 5.09091H54.3182L50.4659 19H48.2841Z" fill="#1E1E1E"/>
<path d="M71.892 19.2727C70.6307 19.2727 69.5426 18.9943 68.6278 18.4375C67.7187 17.875 67.017 17.0909 66.5227 16.0852C66.0341 15.0739 65.7898 13.8977 65.7898 12.5568C65.7898 11.2159 66.0341 10.0341 66.5227 9.01136C67.017 7.98295 67.7045 7.18182 68.5852 6.60795C69.4716 6.02841 70.5057 5.73864 71.6875 5.73864C72.3693 5.73864 73.0426 5.85227 73.7074 6.07954C74.3722 6.30682 74.9773 6.67614 75.5227 7.1875C76.0682 7.69318 76.5028 8.36364 76.8267 9.19886C77.1506 10.0341 77.3125 11.0625 77.3125 12.2841V13.1364H67.2216V11.3977H75.267C75.267 10.6591 75.1193 10 74.8239 9.42045C74.5341 8.84091 74.1193 8.38352 73.5795 8.0483C73.0455 7.71307 72.4148 7.54545 71.6875 7.54545C70.8864 7.54545 70.1932 7.74432 69.608 8.14205C69.0284 8.53409 68.5824 9.04545 68.2699 9.67614C67.9574 10.3068 67.8011 10.983 67.8011 11.7045V12.8636C67.8011 13.8523 67.9716 14.6903 68.3125 15.3778C68.6591 16.0597 69.1392 16.5795 69.7528 16.9375C70.3665 17.2898 71.0795 17.4659 71.892 17.4659C72.4205 17.4659 72.8977 17.392 73.3239 17.2443C73.7557 17.0909 74.1278 16.8636 74.4403 16.5625C74.7528 16.2557 74.9943 15.875 75.1648 15.4205L77.108 15.9659C76.9034 16.625 76.5597 17.2045 76.0767 17.7045C75.5938 18.1989 74.9972 18.5852 74.2869 18.8636C73.5767 19.1364 72.7784 19.2727 71.892 19.2727Z" fill="#1E1E1E"/>
<path d="M84.2244 19.3068C83.3949 19.3068 82.642 19.1506 81.9659 18.8381C81.2898 18.5199 80.7528 18.0625 80.3551 17.4659C79.9574 16.8636 79.7585 16.1364 79.7585 15.2841C79.7585 14.5341 79.9063 13.9261 80.2017 13.4602C80.4972 12.9886 80.892 12.6193 81.3864 12.3523C81.8807 12.0852 82.4261 11.8864 83.0227 11.7557C83.625 11.6193 84.2301 11.5114 84.8381 11.4318C85.6335 11.3295 86.2784 11.2528 86.7727 11.2017C87.2727 11.1449 87.6364 11.0511 87.8636 10.9205C88.0966 10.7898 88.2131 10.5625 88.2131 10.2386V10.1705C88.2131 9.32955 87.983 8.67614 87.5227 8.21023C87.0682 7.74432 86.3778 7.51136 85.4517 7.51136C84.4915 7.51136 83.7386 7.72159 83.1932 8.14205C82.6477 8.5625 82.2642 9.01136 82.0426 9.48864L80.1335 8.80682C80.4744 8.01136 80.929 7.39205 81.4972 6.94886C82.071 6.5 82.696 6.1875 83.3722 6.01136C84.054 5.82955 84.7244 5.73864 85.3835 5.73864C85.804 5.73864 86.2869 5.78977 86.8324 5.89204C87.3835 5.98864 87.9148 6.19034 88.4261 6.49716C88.9432 6.80398 89.3722 7.26705 89.7131 7.88636C90.054 8.50568 90.2244 9.33523 90.2244 10.375V19H88.2131V17.2273H88.1108C87.9744 17.5114 87.7472 17.8153 87.429 18.1392C87.1108 18.4631 86.6875 18.7386 86.1591 18.9659C85.6307 19.1932 84.9858 19.3068 84.2244 19.3068ZM84.5312 17.5C85.3267 17.5 85.9972 17.3438 86.5426 17.0312C87.0938 16.7188 87.5085 16.3153 87.7869 15.821C88.071 15.3267 88.2131 14.8068 88.2131 14.2614V12.4205C88.1278 12.5227 87.9403 12.6165 87.6506 12.7017C87.3665 12.7812 87.0369 12.8523 86.6619 12.9148C86.2926 12.9716 85.9318 13.0227 85.5795 13.0682C85.233 13.108 84.9517 13.142 84.7358 13.1705C84.2131 13.2386 83.7244 13.3494 83.2699 13.5028C82.821 13.6506 82.4574 13.875 82.179 14.1761C81.9063 14.4716 81.7699 14.875 81.7699 15.3864C81.7699 16.0852 82.0284 16.6136 82.5455 16.9716C83.0682 17.3239 83.7301 17.5 84.5312 17.5Z" fill="#1E1E1E"/>
<path d="M95.907 1.54545V19H93.8956V1.54545H95.907Z" fill="#1E1E1E"/>
<path d="M105.284 5.90909V7.61364H98.5V5.90909H105.284ZM100.477 2.77273H102.489V15.25C102.489 15.8182 102.571 16.2443 102.736 16.5284C102.906 16.8068 103.122 16.9943 103.384 17.0909C103.651 17.1818 103.932 17.2273 104.227 17.2273C104.449 17.2273 104.631 17.2159 104.773 17.1932C104.915 17.1648 105.028 17.142 105.114 17.125L105.523 18.9318C105.386 18.983 105.196 19.0341 104.952 19.0852C104.707 19.142 104.398 19.1705 104.023 19.1705C103.455 19.1705 102.898 19.0483 102.352 18.804C101.812 18.5597 101.364 18.1875 101.006 17.6875C100.653 17.1875 100.477 16.5568 100.477 15.7955V2.77273Z" fill="#1E1E1E"/>
<path d="M110.602 11.125V19H108.591V1.54545H110.602V7.95455H110.773C111.08 7.27841 111.54 6.74148 112.153 6.34375C112.773 5.94034 113.597 5.73864 114.625 5.73864C115.517 5.73864 116.298 5.91761 116.969 6.27557C117.639 6.62784 118.159 7.17045 118.528 7.90341C118.903 8.63068 119.091 9.55682 119.091 10.6818V19H117.08V10.8182C117.08 9.77841 116.81 8.97443 116.27 8.40625C115.736 7.83239 114.994 7.54545 114.045 7.54545C113.386 7.54545 112.795 7.68466 112.273 7.96307C111.756 8.24148 111.347 8.64773 111.045 9.18182C110.75 9.71591 110.602 10.3636 110.602 11.125Z" fill="#1E1E1E"/>
<path d="M134.464 19.2386C133.316 19.2386 132.327 19.0284 131.498 18.608C130.668 18.1875 130.029 17.6108 129.58 16.8778C129.131 16.1449 128.907 15.3068 128.907 14.3636C128.907 13.6364 129.06 12.9915 129.367 12.429C129.68 11.8608 130.109 11.3352 130.654 10.8523C131.205 10.3636 131.839 9.875 132.555 9.38636L135.077 7.51136C135.572 7.1875 135.967 6.84091 136.262 6.47159C136.563 6.10227 136.714 5.61932 136.714 5.02273C136.714 4.57955 136.518 4.15057 136.126 3.73579C135.739 3.32102 135.231 3.11364 134.6 3.11364C134.157 3.11364 133.765 3.22727 133.424 3.45454C133.089 3.67614 132.825 3.96023 132.631 4.30682C132.444 4.64773 132.35 5 132.35 5.36364C132.35 5.77273 132.461 6.1875 132.683 6.60795C132.91 7.02273 133.197 7.44886 133.543 7.88636C133.896 8.31818 134.259 8.76136 134.634 9.21591L142.646 19H140.225L133.612 11.0227C132.998 10.2841 132.441 9.61364 131.941 9.01136C131.441 8.40909 131.043 7.81534 130.748 7.23011C130.452 6.64489 130.305 6.01136 130.305 5.32954C130.305 4.54545 130.478 3.85795 130.825 3.26704C131.177 2.67045 131.668 2.20739 132.299 1.87784C132.935 1.54261 133.68 1.375 134.532 1.375C135.407 1.375 136.16 1.54545 136.79 1.88636C137.421 2.22159 137.907 2.66761 138.248 3.22443C138.589 3.77557 138.759 4.375 138.759 5.02273C138.759 5.85795 138.552 6.58239 138.137 7.19602C137.722 7.80966 137.157 8.38068 136.441 8.90909L132.964 11.5C132.18 12.0795 131.648 12.642 131.37 13.1875C131.092 13.733 130.952 14.125 130.952 14.3636C130.952 14.9091 131.094 15.4176 131.379 15.8892C131.663 16.3608 132.063 16.7415 132.58 17.0312C133.097 17.321 133.702 17.4659 134.396 17.4659C135.055 17.4659 135.697 17.3267 136.322 17.0483C136.947 16.7642 137.512 16.3551 138.018 15.821C138.529 15.2869 138.933 14.6449 139.228 13.8949C139.529 13.1449 139.68 12.3011 139.68 11.3636H141.623C141.623 12.5227 141.489 13.4687 141.222 14.2017C140.955 14.9347 140.654 15.5085 140.319 15.9233C139.984 16.3381 139.714 16.6477 139.509 16.8523C139.441 16.9375 139.379 17.0227 139.322 17.108C139.265 17.1932 139.202 17.2784 139.134 17.3636C138.572 17.9943 137.862 18.4659 137.004 18.7784C136.146 19.0852 135.299 19.2386 134.464 19.2386Z" fill="#1E1E1E"/>
<path d="M47.2273 27.5455V45H45.1136V27.5455H47.2273Z" fill="#1E1E1E"/>
<path d="M53.2038 37.125V45H51.1925V31.9091H53.1357V33.9545H53.3061C53.6129 33.2898 54.0788 32.7557 54.7038 32.3523C55.3288 31.9432 56.1357 31.7386 57.1243 31.7386C58.0107 31.7386 58.7862 31.9205 59.451 32.2841C60.1158 32.642 60.6328 33.1875 61.0021 33.9205C61.3715 34.6477 61.5561 35.5682 61.5561 36.6818V45H59.5447V36.8182C59.5447 35.7898 59.2777 34.9886 58.7436 34.4148C58.2095 33.8352 57.4766 33.5455 56.5447 33.5455C55.9027 33.5455 55.3288 33.6847 54.8232 33.9631C54.3232 34.2415 53.9283 34.6477 53.6385 35.1818C53.3487 35.7159 53.2038 36.3636 53.2038 37.125Z" fill="#1E1E1E"/>
<path d="M74.5043 34.8409L72.6974 35.3523C72.5838 35.0511 72.4162 34.7585 72.1946 34.4744C71.9787 34.1847 71.6832 33.946 71.3082 33.7585C70.9332 33.571 70.4531 33.4773 69.8679 33.4773C69.0668 33.4773 68.3991 33.6619 67.8651 34.0312C67.3366 34.3949 67.0724 34.858 67.0724 35.4205C67.0724 35.9205 67.2543 36.3153 67.6179 36.6051C67.9815 36.8949 68.5497 37.1364 69.3224 37.3295L71.2656 37.8068C72.4361 38.0909 73.3082 38.5256 73.8821 39.1108C74.456 39.6903 74.7429 40.4375 74.7429 41.3523C74.7429 42.1023 74.527 42.7727 74.0952 43.3636C73.669 43.9545 73.0724 44.4205 72.3054 44.7614C71.5384 45.1023 70.6463 45.2727 69.6293 45.2727C68.294 45.2727 67.1889 44.983 66.3139 44.4034C65.4389 43.8239 64.8849 42.9773 64.652 41.8636L66.5611 41.3864C66.7429 42.0909 67.0866 42.6193 67.5923 42.9716C68.1037 43.3239 68.7713 43.5 69.5952 43.5C70.5327 43.5 71.277 43.3011 71.8281 42.9034C72.3849 42.5 72.6634 42.017 72.6634 41.4545C72.6634 41 72.5043 40.6193 72.1861 40.3125C71.8679 40 71.3793 39.767 70.7202 39.6136L68.5384 39.1023C67.3395 38.8182 66.4588 38.3778 65.8963 37.7812C65.3395 37.179 65.0611 36.4261 65.0611 35.5227C65.0611 34.7841 65.2685 34.1307 65.6832 33.5625C66.1037 32.9943 66.6747 32.5483 67.3963 32.2244C68.1236 31.9006 68.9474 31.7386 69.8679 31.7386C71.1634 31.7386 72.1804 32.0227 72.919 32.5909C73.6634 33.1591 74.1918 33.9091 74.5043 34.8409Z" fill="#1E1E1E"/>
<path d="M86.0206 39.6477V31.9091H88.032V45H86.0206V42.7841H85.8842C85.5774 43.4489 85.1001 44.0142 84.4524 44.4801C83.8047 44.9403 82.9865 45.1705 81.9979 45.1705C81.1797 45.1705 80.4524 44.9915 79.816 44.6335C79.1797 44.2699 78.6797 43.7244 78.316 42.9972C77.9524 42.2642 77.7706 41.3409 77.7706 40.2273V31.9091H79.782V40.0909C79.782 41.0455 80.049 41.8068 80.5831 42.375C81.1229 42.9432 81.8104 43.2273 82.6456 43.2273C83.1456 43.2273 83.6541 43.0994 84.1712 42.8438C84.6939 42.5881 85.1314 42.196 85.4837 41.6676C85.8416 41.1392 86.0206 40.4659 86.0206 39.6477Z" fill="#1E1E1E"/>
<path d="M91.7159 45V31.9091H93.6591V33.8864H93.7955C94.0341 33.2386 94.4659 32.7131 95.0909 32.3097C95.7159 31.9062 96.4205 31.7045 97.2045 31.7045C97.3523 31.7045 97.5369 31.7074 97.7585 31.7131C97.9801 31.7188 98.1477 31.7273 98.2614 31.7386V33.7841C98.1932 33.767 98.0369 33.7415 97.7926 33.7074C97.554 33.6676 97.3011 33.6477 97.0341 33.6477C96.3977 33.6477 95.8295 33.7812 95.3295 34.0483C94.8352 34.3097 94.4432 34.6733 94.1534 35.1392C93.8693 35.5994 93.7273 36.125 93.7273 36.7159V45H91.7159Z" fill="#1E1E1E"/>
<path d="M104.498 45.3068C103.668 45.3068 102.915 45.1506 102.239 44.8381C101.563 44.5199 101.026 44.0625 100.629 43.4659C100.231 42.8636 100.032 42.1364 100.032 41.2841C100.032 40.5341 100.18 39.9261 100.475 39.4602C100.771 38.9886 101.165 38.6193 101.66 38.3523C102.154 38.0852 102.7 37.8864 103.296 37.7557C103.898 37.6193 104.504 37.5114 105.112 37.4318C105.907 37.3295 106.552 37.2528 107.046 37.2017C107.546 37.1449 107.91 37.0511 108.137 36.9205C108.37 36.7898 108.487 36.5625 108.487 36.2386V36.1705C108.487 35.3295 108.256 34.6761 107.796 34.2102C107.342 33.7443 106.651 33.5114 105.725 33.5114C104.765 33.5114 104.012 33.7216 103.467 34.142C102.921 34.5625 102.538 35.0114 102.316 35.4886L100.407 34.8068C100.748 34.0114 101.202 33.392 101.771 32.9489C102.344 32.5 102.969 32.1875 103.646 32.0114C104.327 31.8295 104.998 31.7386 105.657 31.7386C106.077 31.7386 106.56 31.7898 107.106 31.892C107.657 31.9886 108.188 32.1903 108.7 32.4972C109.217 32.804 109.646 33.267 109.987 33.8864C110.327 34.5057 110.498 35.3352 110.498 36.375V45H108.487V43.2273H108.384C108.248 43.5114 108.021 43.8153 107.702 44.1392C107.384 44.4631 106.961 44.7386 106.433 44.9659C105.904 45.1932 105.259 45.3068 104.498 45.3068ZM104.805 43.5C105.6 43.5 106.271 43.3438 106.816 43.0312C107.367 42.7188 107.782 42.3153 108.06 41.821C108.344 41.3267 108.487 40.8068 108.487 40.2614V38.4205C108.401 38.5227 108.214 38.6165 107.924 38.7017C107.64 38.7813 107.31 38.8523 106.935 38.9148C106.566 38.9716 106.205 39.0227 105.853 39.0682C105.506 39.108 105.225 39.142 105.009 39.1705C104.487 39.2386 103.998 39.3494 103.543 39.5028C103.094 39.6506 102.731 39.875 102.452 40.1761C102.18 40.4716 102.043 40.875 102.043 41.3864C102.043 42.0852 102.302 42.6136 102.819 42.9716C103.342 43.3239 104.004 43.5 104.805 43.5Z" fill="#1E1E1E"/>
<path d="M116.18 37.125V45H114.169V31.9091H116.112V33.9545H116.283C116.589 33.2898 117.055 32.7557 117.68 32.3523C118.305 31.9432 119.112 31.7386 120.101 31.7386C120.987 31.7386 121.763 31.9205 122.428 32.2841C123.092 32.642 123.609 33.1875 123.979 33.9205C124.348 34.6477 124.533 35.5682 124.533 36.6818V45H122.521V36.8182C122.521 35.7898 122.254 34.9886 121.72 34.4148C121.186 33.8352 120.453 33.5455 119.521 33.5455C118.879 33.5455 118.305 33.6847 117.8 33.9631C117.3 34.2415 116.905 34.6477 116.615 35.1818C116.325 35.7159 116.18 36.3636 116.18 37.125Z" fill="#1E1E1E"/>
<path d="M133.526 45.2727C132.299 45.2727 131.242 44.983 130.356 44.4034C129.469 43.8239 128.788 43.0256 128.31 42.0085C127.833 40.9915 127.594 39.8295 127.594 38.5227C127.594 37.1932 127.839 36.0199 128.327 35.0028C128.822 33.9801 129.509 33.1818 130.39 32.608C131.276 32.0284 132.31 31.7386 133.492 31.7386C134.413 31.7386 135.242 31.9091 135.981 32.25C136.719 32.5909 137.325 33.0682 137.796 33.6818C138.268 34.2955 138.56 35.0114 138.674 35.8295H136.663C136.509 35.233 136.168 34.7045 135.64 34.2443C135.117 33.7784 134.413 33.5455 133.526 33.5455C132.742 33.5455 132.055 33.75 131.464 34.1591C130.879 34.5625 130.421 35.1335 130.092 35.8722C129.768 36.6051 129.606 37.4659 129.606 38.4545C129.606 39.4659 129.765 40.3466 130.083 41.0966C130.407 41.8466 130.862 42.429 131.447 42.8438C132.038 43.2585 132.731 43.4659 133.526 43.4659C134.049 43.4659 134.523 43.375 134.95 43.1932C135.376 43.0114 135.737 42.75 136.032 42.4091C136.327 42.0682 136.538 41.6591 136.663 41.1818H138.674C138.56 41.9545 138.279 42.6506 137.83 43.2699C137.387 43.8835 136.799 44.3722 136.066 44.7358C135.339 45.0937 134.492 45.2727 133.526 45.2727Z" fill="#1E1E1E"/>
<path d="M147.103 45.2727C145.842 45.2727 144.754 44.9943 143.839 44.4375C142.93 43.875 142.228 43.0909 141.734 42.0852C141.245 41.0739 141.001 39.8977 141.001 38.5568C141.001 37.2159 141.245 36.0341 141.734 35.0114C142.228 33.983 142.915 33.1818 143.796 32.608C144.683 32.0284 145.717 31.7386 146.898 31.7386C147.58 31.7386 148.254 31.8523 148.918 32.0795C149.583 32.3068 150.188 32.6761 150.734 33.1875C151.279 33.6932 151.714 34.3636 152.038 35.1989C152.362 36.0341 152.523 37.0625 152.523 38.2841V39.1364H142.433V37.3977H150.478C150.478 36.6591 150.33 36 150.035 35.4205C149.745 34.8409 149.33 34.3835 148.79 34.0483C148.256 33.7131 147.626 33.5455 146.898 33.5455C146.097 33.5455 145.404 33.7443 144.819 34.142C144.239 34.5341 143.793 35.0455 143.481 35.6761C143.168 36.3068 143.012 36.983 143.012 37.7045V38.8636C143.012 39.8523 143.183 40.6903 143.523 41.3778C143.87 42.0597 144.35 42.5795 144.964 42.9375C145.577 43.2898 146.29 43.4659 147.103 43.4659C147.631 43.4659 148.109 43.392 148.535 43.2443C148.967 43.0909 149.339 42.8636 149.651 42.5625C149.964 42.2557 150.205 41.875 150.376 41.4205L152.319 41.9659C152.114 42.625 151.771 43.2045 151.288 43.7045C150.805 44.1989 150.208 44.5852 149.498 44.8636C148.788 45.1364 147.989 45.2727 147.103 45.2727Z" fill="#1E1E1E"/>
</svg>
